<svg width="65" height="72" viewBox="0 0 65 72" fill="none" xmlns="http://www.w3.org/2000/svg">
<g clip-path="url(#clip0_262_154)">
<path d="M61.9236 43.5036C61.8832 43.4873 61.8427 43.4791 61.8103 43.4709L41.1664 39.8701C40.9883 40.703 40.7535 41.5766 40.4621 42.4993C41.6117 44.5896 44.6961 51.9627 51.4964 54.2244C52.1603 54.4449 52.6136 55.0736 52.6136 55.7758V61.3035C52.6136 61.7526 52.4274 62.1935 52.0955 62.4957C51.796 62.7814 51.3993 62.9366 50.9945 62.9366C50.954 62.9366 50.9136 62.9366 50.8731 62.9284C39.4501 62.0466 33.3541 56.4045 31.3464 53.4814C31.1116 53.5712 30.8687 53.6365 30.6259 53.71V61.8914C30.6259 63.7857 31.8969 65.4596 33.767 65.974L59.6893 71.8447C60.0616 71.9509 60.4421 71.9999 60.8145 71.9999C61.7213 71.9999 62.6118 71.7059 63.3566 71.1262C64.4009 70.326 65 69.1094 65 67.7785V47.5617C65 45.6755 63.7371 44.0017 61.9236 43.5036Z" fill="#0058E5"/>
<path d="M50.0875 55.1631C49.9742 55.1386 49.8608 55.1059 49.7556 55.0733C49.6423 55.0325 49.4723 54.9263 49.3589 54.9263C48.6951 54.6569 48.0798 54.2731 47.4726 53.8893C46.153 53.0565 44.9549 52.044 43.8782 50.9091C42.9148 49.8966 42.0566 48.7943 41.2876 47.6267C40.6723 46.6959 40.1218 45.7324 39.6198 44.7362C39.3284 44.1484 39.0532 43.5441 38.8103 42.9318C38.7779 42.8419 38.7374 42.744 38.705 42.6541C39.0774 41.5682 39.3608 40.5557 39.5632 39.5922C41.069 32.1783 38.3407 28.1774 36.9726 26.7077L39.2151 24.1846C41.9352 21.7514 42.0324 17.8403 40.9152 15.0315L40.8099 14.7703C40.5832 14.215 40.4456 13.8639 40.478 13.5047C40.5832 12.2309 41.498 10.9898 42.2752 10.0508C43.101 9.06284 43.9024 8.03404 44.6796 7.03789C45.0196 6.60514 45.3516 6.17239 45.6997 5.73964C45.9426 5.42937 46.0559 5.02111 46.0073 4.62102C45.9587 4.22093 45.7483 3.8535 45.4325 3.60855L41.0609 0.244517C40.567 -0.131079 39.8708 -0.0739229 39.4498 0.375159L39.2394 0.595617C38.1788 1.70607 36.1144 3.98414 36.082 4.02497C35.4587 4.77616 34.22 5.97643 33.5481 6.16423C32.2447 6.51533 30.6822 6.34386 29.1845 6.13157C26.8287 5.7968 24.481 6.67863 22.9104 8.49128L15.3329 17.1953C14.1266 16.7054 12.3618 16.191 10.8074 17.2361C10.0059 17.7832 9.41496 18.6569 9.10733 19.7102C8.94542 19.7591 8.7835 19.8163 8.62159 19.8898C7.42343 20.445 6.50053 21.6208 6.07956 23.115C5.37523 23.3028 4.72758 23.6866 4.23375 24.3806C3.62657 25.2379 3.35942 26.4056 3.44847 27.565C2.56604 27.8344 1.85362 28.3815 1.38408 29.1899C0.153538 31.3454 0.938816 34.8238 1.39217 36.3915L1.00358 36.7671C-0.0245668 37.7469 -0.291723 39.2656 0.323546 40.5475C0.841668 41.6253 5.68287 51.0642 15.9482 52.1747C15.9886 52.1747 16.0291 52.1828 16.0777 52.1828C16.4339 52.1828 16.7739 52.0195 17.0087 51.7419L17.1625 51.5541C19.2755 52.2726 24.9262 53.7914 30.6256 52.0032C31.087 51.8481 31.5485 51.6684 31.9937 51.4561C31.9937 51.4561 32.3742 51.995 32.3985 52.0277C32.7871 52.5421 33.2162 53.032 33.6614 53.5056C34.3415 54.2241 35.0701 54.8937 35.8311 55.5142C36.8187 56.3144 37.8631 57.0411 38.9641 57.678C40.2837 58.4455 41.6761 59.0987 43.1091 59.6294C44.8011 60.25 46.5497 60.699 48.3227 60.993C48.7922 61.0665 49.2618 61.14 49.7232 61.2135C49.958 61.2461 50.1928 61.2869 50.4275 61.3196C50.6218 61.3523 50.8323 61.4257 51.0266 61.4257C51.6824 61.5564 52.3543 61.7442 53.0182 61.7932C52.9696 60.9685 52.921 60.1438 52.8724 59.3191C52.8077 58.2005 53.091 57.0901 53.0343 55.9796C53.0586 55.8 53.0101 55.5959 52.7915 55.5877C52.4272 55.5142 51.6986 55.4489 51.3262 55.3999C51.1642 55.3754 51.0023 55.3591 50.8404 55.3264C50.6704 55.2937 50.4599 55.2121 50.2899 55.2121C50.2252 55.1958 50.1604 55.1794 50.0875 55.1631ZM10.4188 19.4652C11.4632 19.3672 12.5156 19.7755 13.2118 20.0939C14.07 20.4858 15.6567 21.2044 16.2639 22.3475C16.3691 22.5435 16.2963 22.7966 16.102 22.9027C16.0372 22.9354 15.9724 22.9517 15.9077 22.9517C15.762 22.9517 15.6243 22.8701 15.5515 22.7313C15.0738 21.8331 13.649 21.188 12.8799 20.8369C12.2646 20.5593 11.3579 20.2001 10.4917 20.2736C10.2731 20.3062 10.0707 20.1347 10.0545 19.9061C10.0302 19.6857 10.2002 19.4815 10.4188 19.4652ZM7.4963 22.8946C8.54063 22.8292 9.67403 23.1313 10.6536 23.4253C11.6979 23.7356 12.8799 24.1683 13.6733 24.9522C13.8352 25.1073 13.8352 25.3686 13.6814 25.5319C13.6004 25.6135 13.4952 25.6544 13.3899 25.6544C13.2928 25.6544 13.1875 25.6135 13.1066 25.5319C12.4427 24.8705 11.3741 24.4949 10.4188 24.201C9.81975 24.0213 8.57302 23.6539 7.54487 23.7111C7.31819 23.7356 7.13199 23.5478 7.1158 23.3273C7.1077 23.0987 7.27771 22.9109 7.4963 22.8946ZM4.85711 27.6875C4.84092 27.4589 5.01093 27.2629 5.23761 27.2466C7.8606 27.0669 10.1274 28.4142 11.2446 29.2307C11.4308 29.3613 11.4713 29.6144 11.3336 29.8022C11.2608 29.9084 11.1312 29.9655 11.0098 29.9655C10.9289 29.9655 10.8479 29.941 10.775 29.8921C9.73879 29.1409 7.65821 27.8998 5.29428 28.0631C5.0595 28.0712 4.8733 27.9079 4.85711 27.6875ZM35.232 24.9848C33.3214 23.1803 29.5731 20.0776 26.6425 20.396C25.4686 20.5267 24.5134 21.1635 23.8738 22.2495C23.1857 23.409 23.0561 24.6664 23.5014 25.8585C24.1976 27.7201 26.1811 29.1654 27.9864 30.1452C25.331 32.6192 24.8048 35.7056 25.0962 38.2286L19.9717 44.377C16.9844 40.025 9.3502 35.7954 6.88912 34.5053L7.07532 34.3257L7.31009 34.2931C9.26924 34.0318 10.8236 33.8195 11.617 32.9621C12.0137 32.5457 12.2161 31.9905 12.2323 31.4189C12.9123 31.2148 13.5761 30.8719 14.0862 30.3656C14.7095 29.7451 15.0253 28.9612 15.0091 28.1121C15.001 27.8018 14.9524 27.5242 14.8957 27.2547C16.3529 26.2667 16.8063 25.2461 16.8711 24.4378C17.8183 23.6947 18.8626 22.7639 19.2593 21.3758C19.7045 19.8245 18.6926 18.8528 17.6482 18.2486L21.9389 13.3169C24.3272 14.1089 32.2285 17.2361 35.3211 24.6745C35.3453 24.7235 35.3777 24.7562 35.402 24.8052L35.232 24.9848Z" fill="#0058E5"/>
</g>
<defs>
<clipPath id="clip0_262_154">
<rect width="65" height="72" fill="white"/>
</clipPath>
</defs>
</svg>
