<svg width="165" height="46" viewBox="0 0 165 46" fill="none" xmlns="http://www.w3.org/2000/svg">
<path d="M39.8587 0H5.97639C2.67572 0 0 2.68535 0 5.99789V40.0021C0 43.3147 2.67572 46 5.97639 46H39.8587C43.1594 46 45.8351 43.3147 45.8351 40.0021V5.99789C45.8351 2.68535 43.1594 0 39.8587 0Z" fill="#0058E5"/>
<path d="M30.1077 32.021H15.7273L14.824 32.9195V35.623L15.7273 36.5295H18.4695V41.9365L19.3647 42.8431H22.0586L22.9619 41.9365V36.5295H26.5106V41.9203L27.4059 42.8269H30.1077L31.003 41.9203V32.9195L30.1077 32.021Z" fill="white"/>
<path d="M30.1077 20.2925H15.7273L14.832 21.191V30.208L15.7273 31.1065H30.1077L31.003 30.208V21.191L30.1077 20.2925ZM19.3244 26.606V24.801H26.5187V26.606H19.3244Z" fill="white"/>
<path d="M30.761 16.2372L25.7928 10.9758L25.3089 3.99045L24.4136 3.15674H21.4214L20.5181 3.99045L20.0422 10.9758L15.074 16.2372L14.824 16.8523V18.4874L15.7273 19.3939H18.9453L19.5825 19.1268L22.9135 15.7839L26.2525 19.1268L26.8816 19.3939H30.1077L31.003 18.4874V16.8523L30.761 16.2372Z" fill="white"/>
<path d="M55.9087 18.7949H89.7991V23.5868H77.5157V24.4609H88.9603V33.5509H66.0629V34.6193H89.3394V38.6907H61.1753L56.7394 34.5788V29.4794H79.6368V28.5243H56.7394V24.4528H68.1841V23.5787H55.9006V18.7868L55.9087 18.7949ZM56.7394 13.2422H66.1032L68.1922 11.3401V7.30908H77.5157V11.3401L79.6046 13.2422H88.9684V18.0341H74.9831L72.862 15.5977L70.7408 18.0341H56.7556V13.2422H56.7394Z" fill="#0058E5"/>
<path d="M126.561 27.731H115.116V33.8908H127.399V38.6826H93.509V33.8908H105.792V27.731H98.7757L94.3398 23.6191V7.68945H126.561V27.7391V27.731ZM103.663 22.9391H117.237V12.4813H103.663V22.9391Z" fill="#0058E5"/>
<path d="M131.11 33.8988H134.828L136.61 31.8429V12.4813H131.416V7.68945H145.176V32.2233L143.732 33.8988H146.458V19.7824H153.886V33.8988H155.176V12.4813H147.329V7.68945H163.742V32.2233L162.298 33.8988H164.992V38.6907H131.102V33.8988H131.11Z" fill="#0058E5"/>
</svg>
