<svg width="48" height="48" viewBox="0 0 48 48" fill="none" xmlns="http://www.w3.org/2000/svg">
<circle cx="24" cy="24" r="24" fill="#FAE300"/>
<path d="M24 11C15.7155 11 9 16.2835 9 22.8013C9 27.0439 11.8457 30.7614 16.1157 32.8417C15.8018 34.0079 14.9796 37.065 14.8149 37.7192C14.6121 38.5313 15.1141 38.5204 15.4428 38.3016C15.7008 38.1307 19.5535 35.5245 21.2157 34.3993C22.1179 34.5323 23.0481 34.6026 24 34.6026C32.2845 34.6026 39 29.3183 39 22.8013C39 16.2843 32.2837 11 24 11Z" fill="#391B1B"/>
<path d="M18.2048 19.2715H13.8683C13.4604 19.2715 13.1309 19.6018 13.1309 20.0089C13.1309 20.4161 13.4612 20.7464 13.8683 20.7464H15.278V25.9409C15.278 26.1299 15.3548 26.3158 15.49 26.4502C15.6221 26.5839 15.8072 26.6607 15.997 26.6607H16.1545C16.3434 26.6607 16.5278 26.5839 16.6607 26.4502C16.7959 26.3158 16.8727 26.1307 16.8727 25.9409V20.7464H18.204C18.6119 20.7464 18.9422 20.4161 18.9422 20.0089C18.9422 19.6018 18.6119 19.2715 18.204 19.2715H18.2048Z" fill="#FAE300"/>
<path d="M28.6276 25.2755H26.6111V19.9704C26.6111 19.5279 26.2531 19.1699 25.8114 19.1699C25.3697 19.1699 25.0117 19.5279 25.0117 19.9704V25.6888C25.0117 25.7333 25.0171 25.7748 25.024 25.8171C25.0163 25.8586 25.0117 25.9016 25.0117 25.9446C25.0117 26.3149 25.3105 26.6145 25.6808 26.6145H28.6276C28.9986 26.6145 29.2967 26.3149 29.2967 25.9446C29.2967 25.5743 28.9979 25.2755 28.6276 25.2755Z" fill="#FAE300"/>
<path d="M35.0688 25.519L32.8219 22.5676L34.8522 20.5365C35.1272 20.2623 35.1272 19.816 34.8522 19.541C34.5772 19.2659 34.1316 19.2659 33.8558 19.541L31.3423 22.0545V19.9704C31.3423 19.5279 30.9844 19.1699 30.5426 19.1699C30.1009 19.1699 29.7422 19.5279 29.7422 19.9704V25.8647C29.7422 26.3072 30.1002 26.6652 30.5426 26.6652C30.9851 26.6652 31.3423 26.3079 31.3423 25.8647V24.0464L31.7994 23.5901L33.925 26.3794C34.1616 26.6951 34.611 26.7604 34.9267 26.5215C35.2424 26.2841 35.3062 25.8355 35.0688 25.519Z" fill="#FAE300"/>
<path d="M24.409 25.7091L22.248 19.7971C22.248 19.7971 22.2427 19.7925 22.2411 19.7902C22.1029 19.4299 21.7042 19.168 21.2287 19.168C20.7009 19.168 20.2646 19.4906 20.1778 19.9123C20.1632 19.9438 20.1486 19.9753 20.1363 20.0091L18.0115 25.7091C17.8801 26.0832 18.0768 26.4919 18.4493 26.6233C18.8227 26.7546 19.2321 26.558 19.3635 26.1846L19.7315 25.1353H22.689L23.0562 26.1846C23.1875 26.558 23.597 26.7546 23.9703 26.6233C24.3437 26.4919 24.5403 26.0832 24.409 25.7091ZM20.2008 23.7948L21.1949 20.9586C21.2064 20.9586 21.2156 20.9617 21.2271 20.9617L22.2204 23.7948H20.2016H20.2008Z" fill="#FAE300"/>
</svg>
