<svg width="32" height="32" viewBox="0 0 32 32" fill="none" xmlns="http://www.w3.org/2000/svg">
<path fill-rule="evenodd" clip-rule="evenodd" d="M28.7071 3.29292C28.9963 3.58206 29.0802 4.01811 28.9192 4.39395L18.6334 28.3939C18.4699 28.7756 18.0876 29.0164 17.6727 28.9992C17.2579 28.9819 16.8969 28.7101 16.7656 28.3163L13.4952 18.5049L3.68378 15.2344C3.2899 15.1031 3.01812 14.7421 3.00087 14.3273C2.98362 13.9125 3.22448 13.5301 3.60609 13.3666L27.6061 3.08088C27.9819 2.91981 28.418 3.00378 28.7071 3.29292ZM6.81146 14.1688L14.6019 16.7656C14.9006 16.8652 15.1349 17.0995 15.2344 17.3981L17.8312 25.1886L26.0961 5.90397L6.81146 14.1688Z" fill="white"/>
<path fill-rule="evenodd" clip-rule="evenodd" d="M18.4228 13.58C18.8133 13.9705 18.8133 14.6037 18.4228 14.9942L14.9942 18.4228C14.6037 18.8133 13.9705 18.8133 13.58 18.4228C13.1895 18.0323 13.1895 17.3991 13.58 17.0086L17.0086 13.58C17.3991 13.1895 18.0323 13.1895 18.4228 13.58Z" fill="white"/>
</svg>
