<svg width="24" height="24" viewBox="0 0 24 24" fill="none" xmlns="http://www.w3.org/2000/svg">
<path d="M8.5 14.332H12.625V15.9844H13.8438V14.332H15.0039V13.2422H13.8438V7.5H12.25L8.5 13.2891V14.332ZM9.85938 13.2422V13.1719L12.5312 9.03516H12.625V13.2422H9.85938Z" fill="#B8BBC0"/>
<path fill-rule="evenodd" clip-rule="evenodd" d="M12 4C7.58172 4 4 7.58172 4 12C4 16.4183 7.58172 20 12 20C16.4183 20 20 16.4183 20 12C20 7.58172 16.4183 4 12 4ZM2 12C2 6.47715 6.47715 2 12 2C17.5228 2 22 6.47715 22 12C22 17.5228 17.5228 22 12 22C6.47715 22 2 17.5228 2 12Z" fill="#B8BBC0"/>
</svg>
