<svg width="24" height="24" viewBox="0 0 24 24" fill="none" xmlns="http://www.w3.org/2000/svg">
<path d="M13 19V17.75C13 15.6789 11.0812 14 8.71428 14H7.28571C4.91878 14 3 15.6789 3 17.75V19M15.2857 14H16.7143C19.0812 14 21 15.6789 21 17.75V19M15 5.1707C15.3128 5.06015 15.6494 5 16 5C17.6568 5 19 6.34315 19 8C19 9.65685 17.6568 11 16 11C15.6494 11 15.3128 10.9398 15 10.8293M11 8C11 9.65685 9.65685 11 8 11C6.34314 11 5 9.65685 5 8C5 6.34315 6.34314 5 8 5C9.65685 5 11 6.34315 11 8Z" stroke="#7A7A80" stroke-width="2" stroke-linecap="round" stroke-linejoin="round"/>
</svg>
