<svg width="16" height="17" viewBox="0 0 16 17" fill="none" xmlns="http://www.w3.org/2000/svg">
<path fill-rule="evenodd" clip-rule="evenodd" d="M12.5237 3.97687C12.7871 4.24024 12.7871 4.66724 12.5237 4.93061L4.43101 13.0233C4.16765 13.2867 3.74064 13.2867 3.47728 13.0233C3.21391 12.76 3.21391 12.333 3.47728 12.0696L11.57 3.97687C11.8334 3.7135 12.2604 3.7135 12.5237 3.97687Z" fill="#B8BBC0"/>
<path fill-rule="evenodd" clip-rule="evenodd" d="M3.47626 3.97687C3.73962 3.7135 4.16663 3.7135 4.42999 3.97687L12.5227 12.0696C12.7861 12.333 12.7861 12.76 12.5227 13.0233C12.2594 13.2867 11.8324 13.2867 11.569 13.0233L3.47626 4.93061C3.21289 4.66724 3.21289 4.24024 3.47626 3.97687Z" fill="#B8BBC0"/>
</svg>
