<svg width="32" height="32" viewBox="0 0 32 32" fill="none" xmlns="http://www.w3.org/2000/svg">
<path fill-rule="evenodd" clip-rule="evenodd" d="M27.7113 15.2971C28.0962 15.6866 28.0962 16.3134 27.7113 16.7029L24.0054 20.4529C23.6172 20.8457 22.984 20.8495 22.5912 20.4613C22.1984 20.0731 22.1946 19.4399 22.5828 19.0471L24.6058 17L14.0294 17C13.4771 17 13.0294 16.5523 13.0294 16C13.0294 15.4477 13.4771 15 14.0294 15L24.6058 15L22.5828 12.9529C22.1946 12.5601 22.1984 11.9269 22.5912 11.5387C22.984 11.1505 23.6172 11.1543 24.0054 11.5471L27.7113 15.2971ZM17.1176 21.25C17.6699 21.25 18.1176 21.6977 18.1176 22.25L18.1176 24C18.1176 25.6569 16.7745 27 15.1176 27L8 27C6.34314 27 5 25.6569 5 24L5 8C5 6.34314 6.34315 5 8 5L15.1176 5C16.7745 5 18.1176 6.34315 18.1176 8L18.1176 9.75C18.1176 10.3023 17.6699 10.75 17.1176 10.75C16.5654 10.75 16.1176 10.3023 16.1176 9.75L16.1176 8C16.1176 7.44771 15.6699 7 15.1176 7L8 7C7.44772 7 7 7.44772 7 8L7 24C7 24.5523 7.44771 25 8 25L15.1176 25C15.6699 25 16.1176 24.5523 16.1176 24L16.1176 22.25C16.1176 21.6977 16.5654 21.25 17.1176 21.25Z" fill="#2459E0"/>
</svg>
