<svg width="42" height="42" viewBox="0 0 42 42" fill="none" xmlns="http://www.w3.org/2000/svg">
<path fill-rule="evenodd" clip-rule="evenodd" d="M9 10.1111C9 8.39289 10.535 7 12.4286 7H29.5714C31.465 7 33 8.39289 33 10.1111V33.4444C33 33.9836 32.6924 34.4842 32.187 34.7677C31.6816 35.0511 31.0505 35.0769 30.5191 34.8358L21 30.5169L11.4809 34.8358C10.9495 35.0769 10.3184 35.0511 9.81303 34.7677C9.30763 34.4842 9 33.9836 9 33.4444V10.1111ZM29.5714 10.1111H12.4286V30.9275L20.2333 27.3864C20.716 27.1675 21.284 27.1675 21.7667 27.3864L29.5714 30.9275V10.1111Z" fill="#2459E0"/>
</svg>
