<svg width="24" height="24" viewBox="0 0 24 24" fill="none" xmlns="http://www.w3.org/2000/svg">
<path d="M9.00009 16.1016H14.7071V15H10.7931V14.9297L12.5157 13.1836C14.1095 11.6191 14.5548 10.8633 14.5665 9.91406C14.5548 8.53711 13.4239 7.5 11.7891 7.5C10.172 7.5 8.98837 8.52539 9.00009 10.0781H10.2188C10.2247 9.17578 10.8224 8.57812 11.7657 8.57812C12.6563 8.57812 13.336 9.11133 13.336 9.94922C13.336 10.6934 12.8731 11.2324 11.9415 12.1992L9.00009 15.1641V16.1016Z" fill="#B8BBC0"/>
<path fill-rule="evenodd" clip-rule="evenodd" d="M12 4C7.58172 4 4 7.58172 4 12C4 16.4183 7.58172 20 12 20C16.4183 20 20 16.4183 20 12C20 7.58172 16.4183 4 12 4ZM2 12C2 6.47715 6.47715 2 12 2C17.5228 2 22 6.47715 22 12C22 17.5228 17.5228 22 12 22C6.47715 22 2 17.5228 2 12Z" fill="#B8BBC0"/>
</svg>
