<svg width="48" height="48" viewBox="0 0 48 48" fill="none" xmlns="http://www.w3.org/2000/svg">
<path fill-rule="evenodd" clip-rule="evenodd" d="M9.5 16.5V33.5H29.75V16.5H9.5ZM6.5 16C6.5 14.6193 7.61929 13.5 9 13.5H30.25C31.6307 13.5 32.75 14.6193 32.75 16V34C32.75 35.3807 31.6307 36.5 30.25 36.5H9C7.61929 36.5 6.5 35.3807 6.5 34V16Z" fill="#2459E0"/>
<path fill-rule="evenodd" clip-rule="evenodd" d="M39.6605 13.6533C40.1744 13.9053 40.5 14.4277 40.5 15V35C40.5 35.5723 40.1744 36.0947 39.6605 36.3467C39.1467 36.5988 38.5343 36.5364 38.0817 36.1861L30.3317 30.1861C29.9648 29.902 29.75 29.4641 29.75 29V21C29.75 20.5359 29.9648 20.098 30.3317 19.8139L38.0817 13.8139C38.5343 13.4636 39.1467 13.4013 39.6605 13.6533ZM32.75 21.7357V28.2643L37.5 31.9417V18.0583L32.75 21.7357Z" fill="#2459E0"/>
</svg>
