<svg width="20" height="16" viewBox="0 0 20 16" fill="none" xmlns="http://www.w3.org/2000/svg">
<path d="M11 15V13.75C11 11.6789 9.08122 10 6.71428 10H5.28571C2.91878 10 1 11.6789 1 13.75V15M13.2857 10H14.7143C17.0812 10 19 11.6789 19 13.75V15M13 1.1707C13.3128 1.06015 13.6494 1 14 1C15.6568 1 17 2.34315 17 4C17 5.65685 15.6568 7 14 7C13.6494 7 13.3128 6.93985 13 6.8293M9 4C9 5.65685 7.65685 7 6 7C4.34314 7 3 5.65685 3 4C3 2.34315 4.34314 1 6 1C7.65685 1 9 2.34315 9 4Z" stroke="#7A7A80" stroke-width="2" stroke-linecap="round" stroke-linejoin="round"/>
</svg>
