<svg width="48" height="48" viewBox="0 0 48 48" fill="none" xmlns="http://www.w3.org/2000/svg">
<path fill-rule="evenodd" clip-rule="evenodd" d="M6.43589 8.47232C7.01977 7.84545 7.96951 7.84215 8.5572 8.46495L35.7337 37.265C36.3214 37.8878 36.3245 38.9008 35.7406 39.5277C35.1567 40.1546 34.207 40.1579 33.6193 39.5351L30.1757 35.8857H11.3824C9.49107 35.8857 7.94118 34.2582 7.94118 32.2286V15.7714C7.94118 14.8111 8.28814 13.9409 8.85407 13.2904L6.4428 10.7351C5.85511 10.1123 5.85202 9.09919 6.43589 8.47232ZM10.993 15.5571C10.9597 15.6219 10.9412 15.6953 10.9412 15.7714V32.2286C10.9412 32.4712 11.1295 32.6857 11.3824 32.6857H27.156L10.993 15.5571ZM41.1729 12.2843C41.6799 12.5558 42 13.1092 42 13.7143V34.2857C42 34.8909 41.6799 35.4442 41.1729 35.7157C40.6659 35.9871 40.0587 35.9303 39.6038 35.5687L32.2416 29.7172C31.6084 29.2139 31.2353 28.4212 31.2353 27.5789V19.9048C31.2352 19.8929 31.2352 19.881 31.2353 19.8691V15.7714C31.2353 15.5288 31.047 15.3143 30.7941 15.3143H19.1471C18.3186 15.3143 17.6471 14.5979 17.6471 13.7143C17.6471 12.8306 18.3186 12.1143 19.1471 12.1143H30.7941C32.6854 12.1143 34.2353 13.7418 34.2353 15.7714V16.6982L39.6038 12.4313C40.0587 12.0697 40.6659 12.0129 41.1729 12.2843ZM34.2353 20.6888V27.3112L39 31.0982V16.9018L34.2353 20.6888Z" fill="#7A7A80"/>
</svg>
