<svg width="18" height="16" viewBox="0 0 18 16" fill="none" xmlns="http://www.w3.org/2000/svg">
<path fill-rule="evenodd" clip-rule="evenodd" d="M9.00055 1.67577C8.14825 1.04667 7.12333 0.645086 6.09461 0.529785C4.74881 0.378944 3.29718 0.713747 2.24538 1.80662C1.26935 2.82078 0.836409 4.04145 0.873257 5.30017C0.909412 6.53522 1.39376 7.75 2.14665 8.82566C3.57954 10.8728 5.79853 12.6809 8.34336 14.7545L9.00055 15.29L9.65774 14.7545C12.2026 12.6809 14.4216 10.8728 15.8544 8.82566C16.6073 7.75 17.0917 6.53522 17.1278 5.30017C17.1647 4.04145 16.7317 2.82078 15.7557 1.80662C14.7039 0.713748 13.2523 0.378945 11.9065 0.529785C10.8778 0.645086 9.85284 1.04667 9.00055 1.67577Z" fill="#2459E0"/>
</svg>
