<svg width="24" height="24" viewBox="0 0 24 24" fill="none" xmlns="http://www.w3.org/2000/svg">
<path fill-rule="evenodd" clip-rule="evenodd" d="M7.82918 5.10557C8.16796 4.428 8.86049 4 9.61803 4H14.382C15.1395 4 15.832 4.428 16.1708 5.10557L16.618 6H19C20.1046 6 21 6.89543 21 8V17C21 18.1046 20.1046 19 19 19H5C3.89543 19 3 18.1046 3 17V8C3 6.89543 3.89543 6 5 6H7.38197L7.82918 5.10557ZM14.382 6L9.61803 6L9.17082 6.89443C8.83204 7.572 8.13951 8 7.38197 8L5 8V17H19V8H16.618C15.8605 8 15.168 7.572 14.8292 6.89443L14.382 6Z" fill="#7A7A80"/>
<path fill-rule="evenodd" clip-rule="evenodd" d="M12 10C10.8954 10 10 10.8954 10 12C10 13.1046 10.8954 14 12 14C13.1046 14 14 13.1046 14 12C14 10.8954 13.1046 10 12 10ZM8 12C8 9.79086 9.79086 8 12 8C14.2091 8 16 9.79086 16 12C16 14.2091 14.2091 16 12 16C9.79086 16 8 14.2091 8 12Z" fill="#7A7A80"/>
</svg>
