<svg width="48" height="48" viewBox="0 0 48 48" fill="none" xmlns="http://www.w3.org/2000/svg">
<circle cx="24" cy="24" r="24" fill="#429AD5"/>
<path d="M20.4667 35.9293C30.6422 35.9293 36.2056 27.4941 36.2056 20.177C36.2056 19.939 36.2056 19.701 36.189 19.463C37.2729 18.6825 38.2075 17.7029 38.9486 16.5959C37.9587 17.0331 36.8913 17.332 35.7742 17.4649C36.9135 16.7785 37.7928 15.6937 38.2075 14.404C37.1402 15.035 35.9567 15.5 34.6959 15.749C33.6838 14.6697 32.2515 14 30.6588 14C27.6062 14 25.1286 16.4796 25.1286 19.5349C25.1286 19.9722 25.1784 20.3873 25.2724 20.7969C20.6769 20.5644 16.5956 18.3615 13.8692 15.0129C13.3936 15.8321 13.1226 16.7785 13.1226 17.7914C13.1226 19.712 14.0959 21.4057 15.5836 22.402C14.6766 22.3743 13.8194 22.1253 13.0784 21.7101C13.0784 21.7378 13.0784 21.76 13.0784 21.7821C13.0784 24.4665 14.9863 26.7026 17.5136 27.2119C17.0546 27.3392 16.5624 27.4056 16.0592 27.4056C15.6997 27.4056 15.3568 27.3668 15.0195 27.3059C15.7273 29.5088 17.768 31.1084 20.1847 31.1527C18.2933 32.6361 15.9043 33.5217 13.3162 33.5217C12.8738 33.5217 12.4314 33.494 12 33.4442C14.4443 35.0161 17.3532 35.9349 20.4778 35.9349" fill="white"/>
</svg>
