<svg width="32" height="32" viewBox="0 0 32 32" fill="none" xmlns="http://www.w3.org/2000/svg">
<path fill-rule="evenodd" clip-rule="evenodd" d="M16.5883 8C11.8999 8 8.17649 11.6234 8.17649 16C8.17649 17.1843 8.44645 18.3069 8.93142 19.3173L9.11857 19.7072L7.59288 23.6532L12.0434 22.7423L12.3664 22.9209C13.6048 23.606 15.0458 24 16.5883 24C21.2766 24 25 20.3766 25 16C25 11.6234 21.2766 8 16.5883 8ZM6.17649 16C6.17649 10.4355 10.8806 6 16.5883 6C22.2959 6 27 10.4355 27 16C27 21.5645 22.2959 26 16.5883 26C14.8374 26 13.1837 25.5842 11.7315 24.8476L6.20054 25.9797C5.84226 26.053 5.47251 25.9249 5.23638 25.6457C5.00026 25.3664 4.93542 24.9805 5.0673 24.6394L6.94616 19.78C6.45008 18.6135 6.17649 17.3368 6.17649 16Z" fill="white"/>
<ellipse cx="12.25" cy="16.0006" rx="1.25" ry="1.28571" fill="white"/>
<ellipse cx="16.625" cy="16.0006" rx="1.25" ry="1.28571" fill="white"/>
<ellipse cx="21" cy="16.0006" rx="1.25" ry="1.28571" fill="white"/>
</svg>
