<svg width="20" height="16" viewBox="0 0 20 16" fill="none" xmlns="http://www.w3.org/2000/svg">
<path fill-rule="evenodd" clip-rule="evenodd" d="M7 2C5.89543 2 5 2.89543 5 4C5 5.10457 5.89543 6 7 6C8.10457 6 9 5.10457 9 4C9 2.89543 8.10457 2 7 2ZM3 4C3 1.79086 4.79086 0 7 0C9.20914 0 11 1.79086 11 4C11 6.20914 9.20914 8 7 8C4.79086 8 3 6.20914 3 4ZM16 3C16.5523 3 17 3.44772 17 4V6H19C19.5523 6 20 6.44772 20 7C20 7.55228 19.5523 8 19 8H17V10C17 10.5523 16.5523 11 16 11C15.4477 11 15 10.5523 15 10V8H13C12.4477 8 12 7.55228 12 7C12 6.44772 12.4477 6 13 6H15V4C15 3.44772 15.4477 3 16 3ZM0 13.75C0 11.0054 2.4961 9 5.28571 9H8.71429C11.5039 9 14 11.0054 14 13.75V15C14 15.5523 13.5523 16 13 16C12.4477 16 12 15.5523 12 15V13.75C12 12.3525 10.6585 11 8.71429 11H5.28571C3.34146 11 2 12.3525 2 13.75V15C2 15.5523 1.55228 16 1 16C0.447715 16 0 15.5523 0 15V13.75Z" fill="#2459E0"/>
</svg>
