<svg width="322" height="232" viewBox="0 0 322 232" fill="none" xmlns="http://www.w3.org/2000/svg">
<g clip-path="url(#clip0_1267_2759)">
<path d="M161.292 232C222.437 232 272.005 217.135 272.005 198.798C272.005 180.462 222.437 165.597 161.292 165.597C100.148 165.597 50.5801 180.462 50.5801 198.798C50.5801 217.135 100.148 232 161.292 232Z" fill="#5184F4"/>
<path d="M203.152 199.918L114.864 199.382L83.2949 94.9069L157.135 50.9736L203.152 199.918Z" fill="#97BFFF"/>
<path d="M96.1743 155.331L181.476 78.442C186.308 74.7559 178.046 55.7682 163.027 36.0357C148.007 16.2978 131.917 3.28392 127.086 6.97004L30.4082 68.9106C30.2691 68.991 30.13 69.0714 30.0015 69.1732C24.1906 73.604 34.2179 96.5565 52.3891 120.441C70.5602 144.321 90.0048 160.088 95.8104 155.657C95.9388 155.561 96.0565 155.449 96.1689 155.336L96.1743 155.331Z" fill="#DEE8FF"/>
<path d="M92.9687 146.983L169.372 78.7475C173.679 75.4579 166.927 59.3258 154.278 42.7061C141.628 26.0865 127.888 15.2853 123.58 18.5696L37.5992 74.2202C37.4761 74.2899 37.353 74.3649 37.2407 74.456C32.0558 78.41 40.2585 97.9174 55.5616 118.02C70.8648 138.122 87.4682 151.221 92.6477 147.267C92.7601 147.182 92.8671 147.085 92.9687 146.983Z" fill="url(#paint0_linear_1267_2759)"/>
<path d="M181.471 78.4279C186.301 74.7422 178.04 55.7549 163.019 36.0186C147.998 16.2823 131.906 3.27067 127.076 6.95636C122.246 10.642 130.507 29.6293 145.528 49.3656C160.549 69.1019 176.641 82.1135 181.471 78.4279Z" fill="#B8D2FF"/>
<path d="M178.281 79.7605C178.233 79.7605 178.185 79.7605 178.136 79.7498C170.966 78.4533 157.295 66.1626 144.892 49.8645C132.81 33.9895 124.779 18.1896 124.902 10.5442C124.907 10.0995 125.292 9.74049 125.715 9.75121C126.159 9.75657 126.512 10.1263 126.507 10.5656C126.389 17.761 134.48 33.5181 146.171 48.884C158.349 64.8929 171.614 76.9317 178.42 78.1639C178.859 78.2443 179.148 78.6622 179.067 79.0962C178.998 79.4873 178.661 79.7552 178.281 79.7552V79.7605Z" fill="#7DB2FF"/>
<path d="M96.672 146.662C96.3135 146.662 95.9871 146.421 95.8961 146.062C93.2956 135.968 84.4401 120.19 72.7916 104.883C60.731 89.0344 47.6002 76.1384 38.5254 71.2307C38.1348 71.0218 37.9903 70.5342 38.199 70.1431C38.4076 69.752 38.8946 69.6073 39.2852 69.8163C48.5473 74.8257 61.876 87.8879 74.065 103.907C85.8367 119.375 94.7938 135.373 97.4478 145.66C97.5602 146.089 97.298 146.528 96.8699 146.641C96.8004 146.657 96.7362 146.667 96.6666 146.667L96.672 146.662Z" fill="#B6D7FF"/>
<path d="M87.9146 19.2861L101.419 37.0304C105.433 42.3045 112.957 43.3225 118.223 39.3041C123.489 35.2858 124.504 27.7527 120.49 22.4785L106.985 4.73421C102.971 -0.539943 95.4478 -1.55795 90.1816 2.46044C84.9155 6.47883 83.9005 14.0119 87.9146 19.2861Z" fill="#97BFFF"/>
<path d="M30.6978 62.9306L44.2026 80.6749C48.2167 85.9491 55.7397 86.9671 61.0059 82.9487C66.272 78.9303 67.287 71.3972 63.2729 66.123L49.7681 48.3787C45.754 43.1046 38.231 42.0866 32.9648 46.105C27.6987 50.1234 26.6837 57.6565 30.6978 62.9306Z" fill="#97BFFF"/>
<path d="M175.848 92.5528L171.75 77.5337C169.935 70.8801 163.076 66.9599 156.431 68.7776L155.487 69.036C148.842 70.8537 144.927 77.721 146.742 84.3746L150.84 99.3937C152.655 106.047 159.513 109.968 166.158 108.15L167.103 107.891C173.748 106.074 177.663 99.2064 175.848 92.5528Z" fill="#97BFFF"/>
<path d="M162.872 109.394C157.034 109.394 151.673 105.504 150.062 99.6052L148.457 93.7277C148.339 93.2991 148.59 92.8598 149.019 92.7419C149.447 92.624 149.885 92.8758 150.003 93.3045L151.608 99.1819C153.304 105.397 159.736 109.072 165.938 107.374L166.885 107.117C167.313 106.999 167.752 107.251 167.869 107.679C167.987 108.108 167.735 108.547 167.307 108.665L166.36 108.922C165.194 109.238 164.022 109.394 162.866 109.394H162.872Z" fill="#5D97ED"/>
<path d="M49.772 48.3828L63.2768 66.1271C67.2909 71.4012 74.814 72.4192 80.0801 68.4008C85.3462 64.3824 86.3612 56.8493 82.3471 51.5752L68.8423 33.8309C64.8283 28.5567 57.3052 27.5387 52.0391 31.5571C46.7729 35.5755 45.758 43.1086 49.772 48.3828Z" fill="#97BFFF"/>
<path d="M68.8404 33.8349L82.3452 51.5792C86.3592 56.8534 93.8823 57.8714 99.1484 53.853C104.415 49.8346 105.43 42.3015 101.415 37.0273L87.9107 19.283C83.8966 14.0089 76.3735 12.9909 71.1074 17.0093C65.8413 21.0277 64.8263 28.5608 68.8404 33.8349Z" fill="#97BFFF"/>
<path d="M53.7636 86.2056C49.9058 86.2056 46.0907 84.4697 43.5758 81.164L38.0378 73.8882C37.7702 73.5346 37.8345 73.0309 38.1876 72.7631C38.5408 72.4952 39.0437 72.5595 39.3113 72.9131L44.8493 80.1889C48.5895 85.1019 55.6203 86.0502 60.527 82.3105C63.486 80.0496 65.1286 76.4813 64.9146 72.7523C64.8878 72.3077 65.2303 71.9273 65.6691 71.9058C66.1078 71.8898 66.4931 72.2219 66.5145 72.6613C66.7553 76.9207 64.8825 81.0086 61.4955 83.591C59.1839 85.3537 56.4604 86.2056 53.7583 86.2056H53.7636Z" fill="#5D97ED"/>
<path d="M121.136 21.9882L117.717 17.493C117.449 17.1394 116.946 17.0698 116.593 17.343C116.24 17.6109 116.171 18.1145 116.443 18.4681L119.863 22.9633C121.671 25.3421 122.452 28.2888 122.051 31.2517C121.65 34.2145 120.119 36.8505 117.744 38.6614C112.837 42.4064 105.806 41.4528 102.066 36.5397L90.9632 21.9453L89.7807 20.3916C89.5132 20.038 89.0102 19.9683 88.657 20.2415C88.3039 20.5148 88.2343 21.0131 88.5072 21.3667L100.798 37.5148C104.538 42.4279 103.586 49.4679 98.679 53.213C93.7724 56.958 86.7415 56.0043 83.0013 51.0913L71.4758 35.9397L70.9835 35.2967C70.716 34.9431 70.213 34.8735 69.8599 35.1467C69.5067 35.4146 69.4371 35.9182 69.71 36.2718L81.7332 52.0718C83.5417 54.4506 84.3229 57.3973 83.9216 60.3602C83.5203 63.323 81.99 65.959 79.6143 67.7699C77.6934 69.2325 75.4086 70.0255 73.0007 70.063C69.4639 70.1166 66.0769 68.461 63.9366 65.6536L61.8391 62.8997L51.2178 48.9429C50.9503 48.5892 50.4473 48.5196 50.0942 48.7928C49.741 49.0607 49.6715 49.5644 49.9444 49.918L60.5656 63.8748L62.6631 66.6287C65.0763 69.7951 68.87 71.6757 72.8509 71.6757C72.9098 71.6757 72.9686 71.6757 73.0275 71.6757C75.7778 71.6382 78.3943 70.7327 80.5881 69.0557C83.3063 66.9823 85.056 63.9713 85.5108 60.5852C85.7623 58.7314 85.6071 56.8884 85.0774 55.1471C87.1428 56.449 89.5239 57.1187 91.921 57.1187C94.6231 57.1187 97.3467 56.2669 99.6582 54.5042C102.376 52.4307 104.126 49.4197 104.581 46.0336C104.832 44.1798 104.677 42.3368 104.147 40.5955C106.213 41.8975 108.594 42.5672 110.991 42.5672C113.693 42.5672 116.417 41.7153 118.728 39.9526C121.446 37.8792 123.196 34.8681 123.651 31.482C124.106 28.0906 123.218 24.726 121.147 22.0042L121.136 21.9882Z" fill="#5D97ED"/>
<path d="M153.774 103.956C150.484 105.333 147.279 106.978 144.245 108.848C136.497 113.637 132.254 121.979 129.107 130.23" fill="#97BFFF"/>
<path d="M128.504 131.039C128.407 131.039 128.311 131.023 128.22 130.985C127.808 130.83 127.599 130.364 127.754 129.946C130.59 122.504 134.908 113.3 143.218 108.162C146.279 106.27 149.521 104.604 152.86 103.211C153.272 103.04 153.738 103.232 153.909 103.645C154.08 104.052 153.887 104.524 153.475 104.695C150.217 106.056 147.049 107.685 144.058 109.533C136.155 114.414 131.998 123.313 129.253 130.519C129.13 130.841 128.825 131.039 128.504 131.039Z" fill="#5D97ED"/>
<path d="M26.2825 100.849C26.748 100.366 26.6035 99.568 26.0043 99.2733C22.8741 97.7357 19.273 96.9588 15.8432 96.4927C11.8622 95.9569 7.16962 95.7319 3.50971 97.6982C0.5668 99.2787 -0.396335 102.279 0.13874 105.462C1.03767 110.825 6.69876 112.7 11.4342 111.382C17.2076 109.78 22.2106 105.081 26.2772 100.843L26.2825 100.849Z" fill="#97BFFF"/>
<path d="M23.0452 89.4528C23.4839 89.4367 23.7729 88.992 23.623 88.5848C22.8311 86.4364 21.472 84.4379 20.0487 82.6645C18.4007 80.6072 16.2711 78.373 13.6492 77.6443C11.5411 77.055 9.7325 78.0355 8.55533 79.7821C6.5702 82.7235 8.41086 86.1738 11.2521 87.7008C14.714 89.5599 19.2033 89.6135 23.0398 89.4581L23.0452 89.4528Z" fill="#97BFFF"/>
</g>
<defs>
<linearGradient id="paint0_linear_1267_2759" x1="162.577" y1="46.6494" x2="29.5223" y2="133.928" gradientUnits="userSpaceOnUse">
<stop stop-color="#BBD7FF"/>
<stop offset="0.33" stop-color="#C0D9FF"/>
<stop offset="0.74" stop-color="#D0E1FF"/>
<stop offset="1" stop-color="#DEE8FF"/>
</linearGradient>
<clipPath id="clip0_1267_2759">
<rect width="272" height="232" fill="white"/>
</clipPath>
</defs>
</svg>
