<svg width="24" height="24" viewBox="0 0 24 24" fill="none" xmlns="http://www.w3.org/2000/svg">
<path fill-rule="evenodd" clip-rule="evenodd" d="M12.4698 5.6C8.71916 5.6 5.74041 8.49873 5.74041 12C5.74041 12.9474 5.95638 13.8455 6.34436 14.6538L6.49408 14.9658L5.27352 18.1226L8.83397 17.3938L9.09235 17.5367C10.0831 18.0848 11.2359 18.4 12.4698 18.4C16.2205 18.4 19.1992 15.5013 19.1992 12C19.1992 8.49873 16.2205 5.6 12.4698 5.6ZM4.14041 12C4.14041 7.54837 7.90372 4 12.4698 4C17.0359 4 20.7992 7.54837 20.7992 12C20.7992 16.4516 17.0359 20 12.4698 20C11.0692 20 9.74618 19.6674 8.58441 19.0781L4.15965 19.9838C3.87302 20.0424 3.57723 19.9399 3.38833 19.7165C3.19942 19.4931 3.14755 19.1844 3.25306 18.9115L4.75615 15.024C4.35928 14.0908 4.14041 13.0694 4.14041 12Z" fill="#2459E0"/>
<ellipse cx="8.99805" cy="12.0012" rx="1" ry="1.02857" fill="#2459E0"/>
<ellipse cx="12.498" cy="12.0012" rx="1" ry="1.02857" fill="#2459E0"/>
<ellipse cx="15.998" cy="12.0012" rx="1" ry="1.02857" fill="#2459E0"/>
</svg>
