<svg width="24" height="24" viewBox="0 0 24 24" fill="none" xmlns="http://www.w3.org/2000/svg">
<path d="M12.0586 16.2188C13.8164 16.2188 15.123 15.1816 15.1172 13.7695C15.123 12.6973 14.4492 11.918 13.2891 11.7539V11.6953C14.2031 11.4668 14.8008 10.7754 14.7891 9.80859C14.8008 8.55469 13.752 7.5 12.082 7.5C10.5 7.5 9.22266 8.4375 9.1875 9.82031H10.4297C10.459 9.05273 11.2207 8.57812 12.0703 8.57812C12.9668 8.57812 13.5469 9.10547 13.5469 9.87891C13.5469 10.6934 12.873 11.2324 11.9062 11.2266H11.1797V12.2812H11.9062C13.1191 12.2871 13.8164 12.8848 13.8164 13.7227C13.8164 14.5488 13.0723 15.1055 12.0469 15.1055C11.0977 15.1055 10.3594 14.6309 10.3125 13.8867H9C9.05273 15.2754 10.3008 16.2188 12.0586 16.2188Z" fill="#B8BBC0"/>
<path fill-rule="evenodd" clip-rule="evenodd" d="M12 4C7.58172 4 4 7.58172 4 12C4 16.4183 7.58172 20 12 20C16.4183 20 20 16.4183 20 12C20 7.58172 16.4183 4 12 4ZM2 12C2 6.47715 6.47715 2 12 2C17.5228 2 22 6.47715 22 12C22 17.5228 17.5228 22 12 22C6.47715 22 2 17.5228 2 12Z" fill="#B8BBC0"/>
</svg>
