<svg width="48" height="48" viewBox="0 0 48 48" fill="none" xmlns="http://www.w3.org/2000/svg">
<path fill-rule="evenodd" clip-rule="evenodd" d="M6.93934 6.93934C7.52513 6.35355 8.47487 6.35355 9.06066 6.93934L17.5 15.3787V13C17.5 9.41015 20.4101 6.5 24 6.5C27.5898 6.5 30.5 9.41015 30.5 13V21C30.5 23.0201 29.5786 24.8231 28.1357 26.0144L30.321 28.1997C32.3798 26.5272 33.5 24.0555 33.5 21C33.5 20.1716 34.1716 19.5 35 19.5C35.8284 19.5 36.5 20.1716 36.5 21C36.5 24.7623 35.1161 28.0463 32.451 30.3297L41.0607 38.9393C41.6464 39.5251 41.6464 40.4749 41.0607 41.0607C40.4749 41.6464 39.5251 41.6464 38.9393 41.0607L6.93934 9.06066C6.35355 8.47487 6.35355 7.52513 6.93934 6.93934ZM25.9967 23.8753C26.9068 23.2421 27.5 22.1892 27.5 21V13C27.5 11.067 25.933 9.5 24 9.5C22.067 9.5 20.5 11.067 20.5 13V18C20.5 18.1169 20.4866 18.2307 20.4613 18.34L25.9967 23.8753ZM13 19.5C13.8284 19.5 14.5 20.1716 14.5 21C14.5 26.2467 18.7533 30.5 24 30.5C24.8284 30.5 25.5 31.1716 25.5 32V38.5H32C32.8284 38.5 33.5 39.1716 33.5 40C33.5 40.8284 32.8284 41.5 32 41.5H16C15.1716 41.5 14.5 40.8284 14.5 40C14.5 39.1716 15.1716 38.5 16 38.5H22.5V33.4109C16.3037 32.6699 11.5 27.3959 11.5 21C11.5 20.1716 12.1716 19.5 13 19.5Z" fill="#7A7A80"/>
</svg>
