<svg width="48" height="48" viewBox="0 0 48 48" fill="none" xmlns="http://www.w3.org/2000/svg">
<path fill-rule="evenodd" clip-rule="evenodd" d="M17.5 13C17.5 9.41015 20.4101 6.5 24 6.5C27.5899 6.5 30.5 9.41015 30.5 13V21C30.5 24.5899 27.5899 27.5 24 27.5C20.4101 27.5 17.5 24.5899 17.5 21V13ZM24 9.5C22.067 9.5 20.5 11.067 20.5 13V21C20.5 22.933 22.067 24.5 24 24.5C25.933 24.5 27.5 22.933 27.5 21V13C27.5 11.067 25.933 9.5 24 9.5ZM13 19.5C13.8284 19.5 14.5 20.1716 14.5 21C14.5 26.2467 18.7533 30.5 24 30.5C29.2467 30.5 33.5 26.2467 33.5 21C33.5 20.1716 34.1716 19.5 35 19.5C35.8284 19.5 36.5 20.1716 36.5 21C36.5 27.3959 31.6963 32.6699 25.5 33.4109V38.5H32C32.8284 38.5 33.5 39.1716 33.5 40C33.5 40.8284 32.8284 41.5 32 41.5H16C15.1716 41.5 14.5 40.8284 14.5 40C14.5 39.1716 15.1716 38.5 16 38.5H22.5V33.4109C16.3037 32.6699 11.5 27.3959 11.5 21C11.5 20.1716 12.1716 19.5 13 19.5Z" fill="#2459E0"/>
</svg>
