<svg width="20" height="13" viewBox="0 0 20 13" fill="none" xmlns="http://www.w3.org/2000/svg">
<path d="M13.6364 5.57143C15.1455 5.57143 16.3545 4.32714 16.3545 2.78571C16.3545 1.24429 15.1455 0 13.6364 0C12.1273 0 10.9091 1.24429 10.9091 2.78571C10.9091 4.32714 12.1273 5.57143 13.6364 5.57143ZM6.36364 5.57143C7.87273 5.57143 9.08182 4.32714 9.08182 2.78571C9.08182 1.24429 7.87273 0 6.36364 0C4.85455 0 3.63636 1.24429 3.63636 2.78571C3.63636 4.32714 4.85455 5.57143 6.36364 5.57143ZM6.36364 7.42857C4.24545 7.42857 0 8.515 0 10.6786V13H12.7273V10.6786C12.7273 8.515 8.48182 7.42857 6.36364 7.42857ZM13.6364 7.42857C13.3727 7.42857 13.0727 7.44714 12.7545 7.475C13.8091 8.255 14.5455 9.30429 14.5455 10.6786V13H20V10.6786C20 8.515 15.7545 7.42857 13.6364 7.42857Z" fill="#7A7A80"/>
</svg>
