<svg width="16" height="17" viewBox="0 0 16 17" fill="none" xmlns="http://www.w3.org/2000/svg">
<path d="M16 3.25819L12.32 0L11.288 1.29146L14.968 4.54965L16 3.25819ZM4.704 1.29146L3.68 0L0 3.24975L1.032 4.54121L4.704 1.29146ZM8.4 5.18272H7.2V10.2473L11 12.6529L11.6 11.6147L8.4 9.6142V5.18272ZM8 1.80636C4.024 1.80636 0.8 5.20804 0.8 9.40318C0.8 13.5983 4.016 17 8 17C11.976 17 15.2 13.5983 15.2 9.40318C15.2 5.20804 11.976 1.80636 8 1.80636ZM8 15.3118C4.904 15.3118 2.4 12.6698 2.4 9.40318C2.4 6.13654 4.904 3.49454 8 3.49454C11.096 3.49454 13.6 6.13654 13.6 9.40318C13.6 12.6698 11.096 15.3118 8 15.3118Z" fill="#7A7A80"/>
</svg>
