<svg width="145" height="42" viewBox="0 0 145 42" fill="none" xmlns="http://www.w3.org/2000/svg">
<path d="M34.7159 0H5.20528C2.33048 0 0 2.40099 0 5.36276V35.7663C0 38.728 2.33048 41.129 5.20528 41.129H34.7159C37.5907 41.129 39.9212 38.728 39.9212 35.7663V5.36276C39.9212 2.40099 37.5907 0 34.7159 0Z" fill="#0058E5"/>
<path d="M26.2229 28.6228H13.6979L12.9111 29.4334V31.8506L13.6979 32.6539H16.0863V37.4956L16.866 38.3062H19.2123L19.999 37.4956V32.6539H23.0899V37.4811L23.8696 38.2845H26.2229L27.0026 37.4811V29.4334L26.2229 28.6228Z" fill="white"/>
<path d="M26.2227 18.1431H13.6977L12.918 18.9464V27.0086L13.6977 27.812H26.2227L27.0024 27.0086V18.9464L26.2227 18.1431ZM16.8307 23.7881V22.1742H23.0967V23.7881H16.8307Z" fill="white"/>
<path d="M26.7919 14.5104L22.4647 9.81344L22.0432 3.56773L21.2635 2.81506H18.6573L17.8706 3.56773L17.4561 9.81344L13.1289 14.5104L12.9111 15.0676V16.5296L13.6979 17.3329H16.5007L17.0557 17.1013L19.9569 14.1051L22.8651 17.1013L23.413 17.3329H26.2229L27.0026 16.5296V15.0676L26.7919 14.5104Z" fill="white"/>
<path d="M77.9952 19.7356H66.4396V21.2337H76.8361V30.3164H56.0361V31.4382H77.3278V35.52H52.3341C51.8353 35.52 51.4419 35.3535 51.1118 34.9772L49.2643 32.9725C48.9341 32.5962 48.7655 32.2271 48.7655 31.7132V26.4083H69.5656V25.3228H48.7655V21.241H59.162V19.7429H47.6064V15.1545H77.9811V19.7429L77.9952 19.7356ZM62.9062 8.78576L57.2583 14.2643H48.8077L59.141 3.92236H67.9218L64.4235 7.28766L70.4647 7.76532L76.801 14.2643H68.3503L62.9062 8.78576Z" fill="#0058E5"/>
<path d="M81.7952 8.1344L80.4395 4.42896H109.852V22.0805H85.3567C84.858 22.0805 84.4646 21.9068 84.1344 21.5377L82.2869 19.533C81.9568 19.1567 81.7882 18.7876 81.7882 18.2737V8.1344H81.7952ZM99.4552 28.2032H111.011V34.4923H80.6361V28.2032H92.1917V23.1009H99.4552V28.2032ZM88.8901 10.7181V15.7841H102.757V10.7181H88.8901Z" fill="#0058E5"/>
<path d="M125.967 28.3769V18.4474H133.23V28.3769H144.027V34.4995H113.652V28.3769H125.967ZM127.126 10.5516L123.859 26.336H116.764L120.066 10.5516H115.149L114.158 4.42896H126.177L127.133 10.5516H127.126ZM141.983 7.6278C142.278 8.03309 142.411 8.40942 142.376 8.92326L141.681 26.336L134.551 27.0163L135.211 10.5516H128.144L127.154 4.42896H138.843C139.37 4.42896 139.77 4.6316 140.065 5.04412L141.983 7.6278Z" fill="#0058E5"/>
</svg>
