<svg width="206" height="57" viewBox="0 0 206 57" fill="none" xmlns="http://www.w3.org/2000/svg">
<g clip-path="url(#clip0_513_763)">
<path d="M23.96 30.64V32.87H32.88V30.64H23.96ZM23.96 30.64V32.87H32.88V30.64H23.96ZM49.42 0H7.42C3.32 0 0 3.32 0 7.41V49.41C0 53.5 3.32 56.82 7.42 56.82H49.42C53.51 56.82 56.83 53.5 56.83 49.41V7.41C56.83 3.32 53.51 0 49.42 0ZM38.45 51.79L37.33 52.9H33.99L32.87 51.79V45.12H28.47V51.81L27.36 52.93H24.01L22.9 51.81V45.12H19.5L18.39 44.01V40.67L19.5 39.55H37.33L38.45 40.67V51.79ZM38.45 37.32L37.33 38.44H19.5L18.39 37.32V26.18L19.5 25.07H37.33L38.45 26.18V37.32ZM38.45 22.84L37.33 23.95H33.34L32.55 23.63L28.41 19.49L24.28 23.63L23.5 23.95H19.5L18.39 22.84V20.82L18.69 20.05L24.85 13.56L25.45 4.93L26.56 3.89H30.27L31.38 4.93L31.98 13.56L38.14 20.05L38.45 20.82V22.84ZM23.96 32.87H32.88V30.64H23.96V32.87Z" fill="#B8BBC0"/>
<path d="M111.03 27.2699H94.5795V29.3399H109.38V41.8899H79.7695V43.4399H110.08V49.0799H74.4995C73.7895 49.0799 73.2295 48.8499 72.7595 48.3299L70.1295 45.5599C69.6595 45.0399 69.4195 44.5299 69.4195 43.8199V36.4899H99.0295V34.9899H69.4195V29.3499H84.2195V27.2799H67.7695V20.9399H111.01V27.2799L111.03 27.2699ZM89.5495 12.1399L81.5095 19.7099H69.4795L84.1895 5.41992H96.6895L91.7095 10.0699L100.31 10.7299L109.33 19.7099H97.2995L89.5495 12.1399Z" fill="#B8BBC0"/>
<path d="M116.44 11.2401L114.51 6.12012H156.38V30.5101H121.51C120.8 30.5101 120.24 30.2701 119.77 29.7601L117.14 26.9901C116.67 26.4701 116.43 25.9601 116.43 25.2501V11.2401H116.44ZM141.58 38.9701H158.03V47.6601H114.79V38.9701H131.24V31.9201H141.58V38.9701ZM126.54 14.8101V21.8101H146.28V14.8101H126.54Z" fill="#B8BBC0"/>
<path d="M179.33 39.2101V25.4901H189.67V39.2101H205.04V47.6701H161.8V39.2101H179.33ZM180.98 14.5801L176.33 36.3901H166.23L170.93 14.5801H163.93L162.52 6.12012H179.63L180.99 14.5801H180.98ZM202.13 10.5401C202.55 11.1001 202.74 11.6201 202.69 12.3301L201.7 36.3901L191.55 37.3301L192.49 14.5801H182.43L181.02 6.12012H197.66C198.41 6.12012 198.98 6.40012 199.4 6.97012L202.13 10.5401Z" fill="#B8BBC0"/>
</g>
<defs>
<clipPath id="clip0_513_763">
<rect width="205.03" height="56.82" fill="white"/>
</clipPath>
</defs>
</svg>
