<svg width="24" height="55" viewBox="0 0 24 55" fill="none" xmlns="http://www.w3.org/2000/svg">
<g clip-path="url(#clip0_256_147)">
<path d="M16.1034 11.2238L15.4138 0.54254C15.4138 0.237361 15.1379 0 14.8276 0H9.2069C8.89655 0 8.62069 0.237361 8.62069 0.54254L7.93103 11.2238C7.93103 11.2238 7.86207 11.4951 7.7931 11.5968L0.137931 19.9384C0.137931 19.9384 0 20.1757 0 20.3453V22.4137C0 22.7528 0.275862 23.024 0.62069 23.024H5.68965C5.86207 23.024 6.03448 22.9562 6.13793 22.8206L11.5517 16.5475C11.7931 16.2762 12.2414 16.2762 12.4828 16.5475L17.8966 22.8206C17.8966 22.8206 18.1724 23.024 18.3448 23.024H23.4138C23.7586 23.024 24.0345 22.7528 24.0345 22.4137V20.3453C24.0345 20.3453 23.9655 20.074 23.8966 19.9384L16.3103 11.5968C16.3103 11.5968 16.1724 11.3594 16.1724 11.2238H16.1034ZM0 39.4359V44.4544C0 44.7935 0.275862 45.0647 0.62069 45.0647H5.37931C5.72414 45.0647 6 45.336 6 45.6751V54.4575C6 54.7966 6.27586 55.0678 6.62069 55.0678H11.4138C11.7586 55.0678 12.0345 54.7966 12.0345 54.4575V45.6751C12.0345 45.336 12.3103 45.0647 12.6552 45.0647H17.4483C17.7931 45.0647 18.069 45.336 18.069 45.6751V54.4575C18.069 54.7966 18.3448 55.0678 18.6897 55.0678H23.4828C23.8276 55.0678 24.1034 54.7966 24.1034 54.4575V39.5037C24.1034 39.1646 23.8276 38.8933 23.4828 38.8933H0.62069C0.275862 38.8933 0 39.1646 0 39.5037V39.4359ZM0 24.7534V37.0962C0 37.4353 0.275862 37.7065 0.62069 37.7065H23.3793C23.7241 37.7065 24 37.4353 24 37.0962V24.7534C24 24.4143 23.7241 24.143 23.3793 24.143H0.62069C0.275862 24.143 0 24.4143 0 24.7534ZM17.931 33.6714H6.06897C5.72414 33.6714 5.44828 33.4001 5.44828 33.061V28.7546C5.44828 28.4155 5.72414 28.1443 6.06897 28.1443H17.931C18.2759 28.1443 18.5517 28.4155 18.5517 28.7546V33.061C18.5517 33.4001 18.2759 33.6714 17.931 33.6714Z" fill="#0058E5"/>
</g>
<defs>
<clipPath id="clip0_256_147">
<rect width="24" height="55" fill="white"/>
</clipPath>
</defs>
</svg>
