<svg width="63" height="46" viewBox="0 0 63 46" fill="none" xmlns="http://www.w3.org/2000/svg">
<path d="M63 46H0V12.7048L16.3973 27.1619L31.9315 0L46.1712 27.1619L63 12.7048V46Z" fill="#D9BB81"/>
<path fill-rule="evenodd" clip-rule="evenodd" d="M32 46.0002V0.130859L46.1713 27.1621L63 12.705V46.0002H32Z" fill="#BFAB83"/>
<path d="M30.4688 43.4375C34.3008 43.4375 37.0547 41.3516 37.0312 38.4453C37.0547 36.3242 35.6836 34.8125 33.1875 34.5078V34.3672C35.0859 34.0273 36.4102 32.6797 36.3984 30.7812C36.4102 28.0977 34.0547 26 30.5156 26C27.0352 26 24.4102 28.0273 24.3516 30.9453H27.7266C27.7852 29.6445 29.0156 28.8008 30.5156 28.8125C32.0156 28.8008 33.0117 29.6914 33 30.9922C33.0117 32.3281 31.8398 33.2422 30.1641 33.2422H28.5938V35.8438H30.1641C32.1562 35.8555 33.3867 36.8281 33.375 38.2109C33.3867 39.582 32.1797 40.5195 30.4922 40.5312C28.8516 40.5195 27.6211 39.6875 27.5625 38.4219H24C24.0703 41.3867 26.7422 43.4375 30.4688 43.4375Z" fill="white"/>
</svg>
