<svg width="63" height="46" viewBox="0 0 63 46" fill="none" xmlns="http://www.w3.org/2000/svg">
<path d="M63 46H0V12.7048L16.3973 27.1619L31.9315 0L46.1712 27.1619L63 12.7048V46Z" fill="#D9D9D9"/>
<path fill-rule="evenodd" clip-rule="evenodd" d="M32 46.0002V0.130859L46.1712 27.1621L63 12.705V46.0002H32Z" fill="#C1C1C1"/>
<path d="M25.336 43.2031H37.4766V40.2969H30.2344V40.2031L32.8125 37.6953C36.3047 34.5312 37.2422 32.9492 37.2422 31.0156C37.2422 28.0742 34.8282 26 31.1954 26C27.6211 26 25.1602 28.1211 25.1719 31.4375H28.5235C28.5118 29.8086 29.5547 28.8008 31.1485 28.8125C32.7071 28.8008 33.8438 29.7383 33.8438 31.25C33.8438 32.5977 32.9883 33.5352 31.4063 35.0469L25.3125 40.6484L25.336 43.2031Z" fill="white"/>
</svg>
